HIERARCHY
ROOT Hips
{
	OFFSET 38.031799 -2.233556 98.854698
	CHANNELS 6 Xposition Yposition Zposition Xrotation Yrotation Zrotation
	JOINT spine
	{
		OFFSET 0.000000 -0.477352 8.301041
		CHANNELS 3 Xrotation Yrotation Zrotation
		JOINT spine1
		{
			OFFSET 0.000000 -0.000002 10.456497
			CHANNELS 3 Xrotation Yrotation Zrotation
			JOINT spine2
			{
				OFFSET 0.000000 -0.000002 10.019203
				CHANNELS 3 Xrotation Yrotation Zrotation
				JOINT Neck
				{
					OFFSET 0.000000 -1.226414 25.723495
					CHANNELS 3 Xrotation Yrotation Zrotation
					JOINT Head
					{
						OFFSET 0.000000 -0.000001 7.771744
						CHANNELS 3 Xrotation Yrotation Zrotation
						End Site
						{
							OFFSET 0.000000 6.203937 18.811996
						}
					}
				}
				JOINT RightShoulder
				{
					OFFSET -4.218800 0.587437 10.820007
					CHANNELS 3 Xrotation Yrotation Zrotation
					JOINT RightArm
					{
						OFFSET 0.000000 -0.000002 14.191406
						CHANNELS 3 Xrotation Yrotation Zrotation
						JOINT RightArmRoll
						{
							OFFSET 0.000000 -0.000001 7.164078
							CHANNELS 3 Xrotation Yrotation Zrotation
							JOINT RightForeArm
							{
								OFFSET 0.000000 -0.000003 20.866501
								CHANNELS 3 Xrotation Yrotation Zrotation
								JOINT RightForeArmRoll
								{
									OFFSET 0.000000 -0.000001 8.039215
									CHANNELS 3 Xrotation Yrotation Zrotation
									JOINT RightHand
									{
										OFFSET 0.000000 -0.000003 16.132996
										CHANNELS 3 Xrotation Yrotation Zrotation
										End Site
										{
											OFFSET 0.000000 0.000000 0.100006
										}
									}
								}
							}
						}
					}
				}
				JOINT LeftShoulder
				{
					OFFSET 4.218800 0.587437 10.820007
					CHANNELS 3 Xrotation Yrotation Zrotation
					JOINT LeftArm
					{
						OFFSET 0.000000 -0.000002 14.191406
						CHANNELS 3 Xrotation Yrotation Zrotation
						JOINT LeftArmRoll
						{
							OFFSET 0.000000 -0.000001 7.164078
							CHANNELS 3 Xrotation Yrotation Zrotation
							JOINT LeftForeArm
							{
								OFFSET 0.000000 -0.000003 20.866501
								CHANNELS 3 Xrotation Yrotation Zrotation
								JOINT LeftForeArmRoll
								{
									OFFSET 0.000000 -0.000001 8.039215
									CHANNELS 3 Xrotation Yrotation Zrotation
									JOINT LeftHand
									{
										OFFSET 0.000000 -0.000003 16.132996
										CHANNELS 3 Xrotation Yrotation Zrotation
										End Site
										{
											OFFSET 0.000000 0.000000 0.100006
										}
									}
								}
							}
						}
					}
				}
			}
		}
	}
	JOINT RightUpLeg
	{
		OFFSET -7.357731 1.131820 -1.349213
		CHANNELS 3 Xrotation Yrotation Zrotation
		JOINT RightUpLegRoll
		{
			OFFSET 0.000000 -0.000003 18.916801
			CHANNELS 3 Xrotation Yrotation Zrotation
			JOINT RightLeg
			{
				OFFSET 0.000000 0.000004 -23.425598
				CHANNELS 3 Xrotation Yrotation Zrotation
				JOINT RightLegRoll
				{
					OFFSET 0.000000 -0.000004 23.502304
					CHANNELS 3 Xrotation Yrotation Zrotation
					JOINT RightFoot
					{
						OFFSET 0.000000 -0.000003 19.561707
						CHANNELS 3 Xrotation Yrotation Zrotation
						JOINT RightToeBase
						{
							OFFSET 0.000000 -0.000003 16.352600
							CHANNELS 3 Xrotation Yrotation Zrotation
							End Site
							{
								OFFSET 0.006931 0.912835 7.919434
							}
						}
					}
				}
			}
		}
	}
	JOINT LeftUpLeg
	{
		OFFSET 7.357731 1.131820 -1.349213
		CHANNELS 3 Xrotation Yrotation Zrotation
		JOINT LeftUpLegRoll
		{
			OFFSET 0.000000 -0.000003 18.916901
			CHANNELS 3 Xrotation Yrotation Zrotation
			JOINT LeftLeg
			{
				OFFSET 0.000000 -0.000004 23.425499
				CHANNELS 3 Xrotation Yrotation Zrotation
				JOINT LeftLegRoll
				{
					OFFSET 0.000000 -0.000004 23.719498
					CHANNELS 3 Xrotation Yrotation Zrotation
					JOINT LeftFoot
					{
						OFFSET 0.000000 -0.000003 19.344406
						CHANNELS 3 Xrotation Yrotation Zrotation
						JOINT LeftToeBase
						{
							OFFSET 0.000000 -0.000003 16.352600
							CHANNELS 3 Xrotation Yrotation Zrotation
							End Site
							{
								OFFSET -0.031063 0.912836 7.919434
							}
						}
					}
				}
			}
		}
	}
}
MOTION
Frames: 6
Frame Time: 0.041667
38.441795 -3.346308 98.727692 -5.169311 -0.296846 -1.732835 -1.397020 -0.050290 0.116703 1.200511 -0.106614 0.236023 2.845574 -0.103841 0.237235 28.931858 -3.160670 0.243631 -12.250913 4.515427 -0.037198 -1.695723 -76.834137 -3.889814 -70.942771 -125.976050 -102.704913 0.000003 0.000001 0.000001 99.106687 -2.858273 -7.755325 0.000001 -0.000011 -3.001380 -5.000238 -7.998760 0.000161 6.418208 62.836941 -6.838810 -58.229746 126.122995 73.127297 0.000002 0.000001 0.000000 88.481330 0.956637 4.011676 0.000004 -0.000004 3.000000 -5.000231 7.998829 -0.000151 2.230640 -175.619299 1.752838 -179.999991 0.000004 -1.139994 173.913951 -3.870130 -0.702329 -0.000003 -0.000000 0.061048 68.190191 6.902425 2.163162 25.456959 -7.355614 0.000000 2.822623 175.718187 -0.295616 -0.000005 -0.000005 -1.247150 -11.560514 3.818199 1.133971 -0.000006 0.000003 -0.162299 68.914239 -6.922039 -2.059500 25.535752 7.355599 -0.119950 
38.438702 -3.339908 98.722099 -5.167559 -0.297934 -1.728224 -1.397209 -0.049365 0.116796 1.199452 -0.105208 0.235368 2.844514 -0.102449 0.236556 28.934590 -3.141561 0.238179 -12.238963 4.491182 -0.041425 -1.679709 -76.827238 -3.872026 -70.775889 -125.992210 -102.857185 0.000006 0.000001 -0.000004 98.872739 -2.928325 -7.604758 0.000000 -0.000013 -3.001381 -5.000238 -7.998763 0.000163 6.442588 62.853190 -6.864044 -58.136016 126.178838 73.362693 0.000003 0.000001 0.000000 88.555001 0.938012 4.047223 0.000004 -0.000003 3.000002 -5.000234 7.998829 -0.000152 2.227128 -175.619299 1.753550 -179.999991 0.000005 -1.139994 173.914211 -3.872116 -0.702523 -0.000003 -0.000000 0.061049 68.190191 6.902427 2.163161 25.456955 -7.355615 -0.000000 2.826016 175.717203 -0.299720 -0.000004 -0.000004 -1.247080 -11.547658 3.823519 1.132651 -0.000005 0.000003 -0.162292 68.908331 -6.922055 -2.059472 25.535547 7.355593 -0.119555 
38.437901 -3.332335 98.722298 -5.165562 -0.299063 -1.723996 -1.397469 -0.048470 0.116872 1.198352 -0.103796 0.234687 2.843414 -0.101049 0.235852 28.937848 -3.123629 0.233112 -12.227354 4.469374 -0.045366 -1.665771 -76.818619 -3.856277 -70.606705 -126.013807 -103.006554 0.000006 -0.000000 0.000001 98.631326 -2.999726 -7.447574 0.000002 -0.000015 -3.001371 -5.000235 -7.998759 0.000162 6.469377 62.870033 -6.891919 -58.049812 126.236075 73.599209 0.000001 -0.000003 -0.000000 88.623316 0.920639 4.080764 0.000001 -0.000006 3.000000 -5.000231 7.998827 -0.000153 2.223268 -175.619272 1.754295 -179.999991 0.000004 -1.139994 173.914457 -3.874115 -0.702719 -0.000003 -0.000000 0.061049 68.190191 6.902426 2.163161 25.456957 -7.355614 0.000001 2.828407 175.716206 -0.302703 -0.000005 -0.000004 -1.247020 -11.535989 3.827802 1.131421 -0.000005 0.000003 -0.162283 68.903474 -6.922059 -2.059476 25.534836 7.355599 -0.118478 
38.436901 -3.329785 98.722511 -5.163330 -0.300235 -1.720200 -1.397810 -0.047617 0.116920 1.197242 -0.102386 0.233976 2.842293 -0.099652 0.235119 28.941762 -3.107105 0.228494 -12.216403 4.450553 -0.048962 -1.654182 -76.807888 -3.842843 -70.434652 -126.042030 -103.151081 0.000006 0.000001 -0.000003 98.381949 -3.072336 -7.282804 0.000004 -0.000014 -3.001370 -5.000239 -7.998759 0.000162 6.499144 62.887635 -6.923055 -57.973758 126.293818 73.838846 0.000002 0.000001 -0.000001 88.685888 0.904736 4.112073 0.000003 -0.000004 3.000001 -5.000232 7.998824 -0.000151 2.219055 -175.619272 1.755073 -179.999991 0.000005 -1.139995 173.914648 -3.876099 -0.701906 -0.000003 -0.000000 0.061050 68.190191 6.902427 2.163161 25.456959 -7.355615 0.000000 2.829624 175.715222 -0.304351 -0.000005 -0.000005 -1.246950 -11.525707 3.830854 1.130308 -0.000005 0.000003 -0.162270 68.899888 -6.922064 -2.059401 25.533532 7.355606 -0.116546 
38.438202 -3.321197 98.722687 -5.160852 -0.301448 -1.716876 -1.398229 -0.046815 0.116931 1.196122 -0.100986 0.233226 2.841183 -0.098262 0.234349 28.946427 -3.092225 0.224403 -12.206219 4.435275 -0.052173 -1.645257 -76.795041 -3.832047 -70.259185 -126.078038 -103.288921 0.000003 0.000000 -0.000001 98.124417 -3.146157 -7.109507 0.000003 -0.000016 -3.001360 -5.000237 -7.998763 0.000160 6.532379 62.905967 -6.958025 -57.907047 126.352899 74.079241 0.000001 0.000001 0.000000 88.742592 0.890385 4.140768 0.000001 -0.000005 3.000003 -5.000230 7.998829 -0.000152 2.214464 -175.618261 1.755931 -179.999991 0.000005 -1.139994 173.914771 -3.878098 -0.702109 -0.000003 -0.000000 0.061051 68.190204 6.902462 2.163069 25.456957 -7.355614 -0.000000 2.829514 175.715222 -0.304404 -0.000005 -0.000005 -1.246880 -11.517106 3.832460 1.129338 -0.000005 0.000003 -0.162250 68.897764 -6.922013 -2.059526 25.531614 7.355613 -0.113588 
38.435699 -3.317447 98.707596 -5.158132 -0.302701 -1.714075 -1.398721 -0.046074 0.116897 1.195032 -0.099602 0.232433 2.840094 -0.096889 0.233537 28.951652 -3.079230 0.220889 -12.196998 4.424078 -0.054941 -1.639262 -76.779673 -3.824141 -70.079776 -126.123036 -103.417971 0.000006 -0.000000 0.000001 97.858367 -3.221440 -6.928671 0.000002 -0.000012 -3.001359 -5.000242 -7.998753 0.000162 6.569642 62.925119 -6.997441 -57.853321 126.411871 74.323523 0.000002 -0.000001 -0.000002 88.792924 0.877871 4.166748 0.000002 -0.000006 3.000003 -5.000231 7.998829 -0.000152 2.209471 -175.617250 1.756848 -179.999991 0.000005 -1.139995 173.914839 -3.880080 -0.702316 -0.000003 -0.000000 0.061053 68.190204 6.902462 2.163069 25.456959 -7.355615 0.000001 2.827913 175.716206 -0.302648 -0.000005 -0.000005 -1.246810 -11.510391 3.832413 1.128536 -0.000005 0.000003 -0.162223 68.897245 -6.922017 -2.059658 25.528884 7.355617 -0.109422 
